<svg width="35" height="35" viewBox="0 0 35 35" fill="none" xmlns="http://www.w3.org/2000/svg">
<path d="M24.7917 2.91667H29.1667C29.5534 2.91667 29.9244 3.07031 30.1979 3.3438C30.4714 3.61729 30.625 3.98823 30.625 4.375V30.625C30.625 31.0118 30.4714 31.3827 30.1979 31.6562C29.9244 31.9297 29.5534 32.0833 29.1667 32.0833H5.83333C5.44656 32.0833 5.07563 31.9297 4.80214 31.6562C4.52865 31.3827 4.375 31.0118 4.375 30.625V4.375C4.375 3.98823 4.52865 3.61729 4.80214 3.3438C5.07563 3.07031 5.44656 2.91667 5.83333 2.91667H10.2083V0H13.125V2.91667H21.875V0H24.7917V2.91667ZM24.7917 5.83333V8.75H21.875V5.83333H13.125V8.75H10.2083V5.83333H7.29167V29.1667H27.7083V5.83333H24.7917ZM10.2083 11.6667H24.7917V14.5833H10.2083V11.6667ZM10.2083 17.5H24.7917V20.4167H10.2083V17.5Z" fill="#FF5945"/>
</svg>
